<svg width="18" height="17" viewBox="0 0 18 17" fill="none" xmlns="http://www.w3.org/2000/svg">
<path d="M5.06449 15.9999H2.6258C2.19461 15.9999 1.78108 15.8419 1.47618 15.5606C1.17129 15.2793 1 14.8977 1 14.4999V9.24995C1 8.85213 1.17129 8.4706 1.47618 8.18929C1.78108 7.90799 2.19461 7.74996 2.6258 7.74996H5.06449M10.7548 6.24997V3.24999C10.7548 2.65325 10.4979 2.08096 10.0405 1.65901C9.58316 1.23705 8.96287 1 8.31609 1L5.06449 7.74996V15.9999H14.234C14.6261 16.004 15.0066 15.8772 15.3053 15.6429C15.6041 15.4086 15.801 15.0826 15.8598 14.7249L16.9816 7.97496C17.017 7.75997 17.0012 7.54047 16.9355 7.33165C16.8698 7.12283 16.7557 6.92968 16.601 6.7656C16.4464 6.60151 16.2549 6.47041 16.0399 6.38138C15.8249 6.29234 15.5915 6.2475 15.3558 6.24997H10.7548Z" stroke="#0D47A1" stroke-width="1.5" stroke-linecap="round" stroke-linejoin="round"/>
</svg>
