<svg width="148" height="32" viewBox="0 0 148 32" fill="none" xmlns="http://www.w3.org/2000/svg">
<path d="M8.71947 0.1H10.7851V11.8H8.71947V3.46696L3.50238 11.8H1.43677V0.1H3.50238V8.44107L8.71947 0.1Z" fill="#0D47A1"/>
<path d="M23.0314 11.8H20.974V6.60089H15.6589V11.8H13.5933V0.1H15.6589V4.96964H20.974V0.1H23.0314V11.8Z" fill="#0D47A1"/>
<path d="M33.0979 0.1H35.1635V11.8H33.0979V3.46696L27.8808 11.8H25.8152V0.1H27.8808V8.44107L33.0979 0.1Z" fill="#0D47A1"/>
<path d="M37.9554 0.1H40.021V10.1768H45.2544V0.1H47.32V10.1607H48.757L48.5937 14.6205H46.6996V11.8H37.9554V0.1Z" fill="#0D47A1"/>
<path d="M58.0805 0.1H60.1461V11.8H58.0805V3.46696L52.8634 11.8H50.7978V0.1H52.8634V8.44107L58.0805 0.1Z" fill="#0D47A1"/>
<path d="M69.7553 9.07589H65.1506L64.1872 11.8H62.0399L66.5304 0.1H68.3837L72.8823 11.8H70.7269L69.7553 9.07589ZM65.7302 7.43661H69.1757L67.4529 2.58304L65.7302 7.43661Z" fill="#0D47A1"/>
<path d="M82.1813 1.73929H78.4746V11.8H76.4254V1.73929H72.7514V0.1H82.1813V1.73929Z" fill="#0D47A1"/>
<path d="M91.366 0.1H93.4316V11.8H91.366V3.46696L86.1489 11.8H84.0833V0.1H86.1489V8.44107L91.366 0.1Z" fill="#0D47A1"/>
<path d="M96.2398 11.8V0.1H100.314C101.658 0.1 102.682 0.365179 103.384 0.895536C104.086 1.42589 104.437 2.21607 104.437 3.26607C104.437 3.80179 104.29 4.28393 103.996 4.7125C103.702 5.14107 103.272 5.47322 102.706 5.70893C103.348 5.88036 103.844 6.20446 104.192 6.68125C104.546 7.15268 104.723 7.72054 104.723 8.38482C104.723 9.48304 104.363 10.3268 103.645 10.9161C102.932 11.5054 101.909 11.8 100.575 11.8H96.2398ZM98.3055 6.52054V10.1768H100.6C101.247 10.1768 101.754 10.0188 102.118 9.70268C102.483 9.38661 102.665 8.94732 102.665 8.38482C102.665 7.16875 102.034 6.54732 100.771 6.52054H98.3055ZM98.3055 5.02589H100.33C100.973 5.02589 101.473 4.88393 101.832 4.6C102.197 4.31072 102.38 3.90357 102.38 3.37857C102.38 2.8 102.211 2.38214 101.873 2.125C101.541 1.86786 101.021 1.73929 100.314 1.73929H98.3055V5.02589Z" fill="#0D47A1"/>
<path d="M109.246 4.57589H111.679C112.549 4.57589 113.309 4.72322 113.956 5.01786C114.604 5.3125 115.097 5.73036 115.434 6.27143C115.772 6.8125 115.94 7.43929 115.94 8.15179C115.94 9.24464 115.562 10.1232 114.805 10.7875C114.054 11.4518 113.028 11.7893 111.728 11.8H107.18V0.1H109.246V4.57589ZM119.173 11.8H117.116V0.1H119.173V11.8ZM109.246 6.20714V10.1768H111.67C112.367 10.1768 112.909 9.99197 113.295 9.62232C113.687 9.24732 113.883 8.75179 113.883 8.13572C113.883 7.54643 113.692 7.08036 113.311 6.7375C112.93 6.39464 112.402 6.21786 111.728 6.20714H109.246Z" fill="#0D47A1"/>
<path d="M10.6708 23.2107H9.33997V28.2571H7.28252V23.2107H5.89457L2.97985 28.2571H0.408051L4.23718 22.0295L0.661149 16.5571H3.15947L6.0007 21.4429H7.28252V16.5571H9.33997V21.4429H10.5646L13.3814 16.5571H15.8715L12.3282 22.0134L16.1246 28.2571H13.561L10.6708 23.2107Z" fill="#0D47A1"/>
<path d="M25.0072 16.5571H27.0728V28.2571H25.0072V19.9241L19.7901 28.2571H17.7245V16.5571H19.7901V24.8982L25.0072 16.5571Z" fill="#0D47A1"/>
<path d="M38.2252 18.1964H34.5185V28.2571H32.4692V18.1964H28.7952V16.5571H38.2252V18.1964Z" fill="#0D47A1"/>
<path d="M47.0751 23.0339H42.1928V26.6339H47.8997V28.2571H40.1272V16.5571H47.8426V18.1964H42.1928V21.4268H47.0751V23.0339Z" fill="#0D47A1"/>
<path d="M59.2643 16.5571V28.2571H57.2069V18.1964H53.5655L53.3533 22.7205C53.2716 24.1348 53.0947 25.233 52.8226 26.0152C52.5559 26.792 52.1667 27.3598 51.655 27.7188C51.1434 28.0777 50.4576 28.2571 49.5976 28.2571H49.0751V26.6339L49.4017 26.6098C49.8752 26.567 50.2399 26.4036 50.4957 26.1196C50.757 25.8357 50.9529 25.4071 51.0835 24.8339C51.2196 24.2554 51.3149 23.4063 51.3693 22.2866L51.5979 16.5571H59.2643Z" fill="#0D47A1"/>
<path d="M69.0369 23.0339H64.1545V26.6339H69.8615V28.2571H62.0889V16.5571H69.8043V18.1964H64.1545V21.4268H69.0369V23.0339Z" fill="#0D47A1"/>
<path d="M79.1605 16.5571H81.2261V28.2571H79.1605V19.9241L73.9434 28.2571H71.8778V16.5571H73.9434V24.8982L79.1605 16.5571ZM79.2258 13.5759C79.2258 14.2509 78.9863 14.7973 78.5073 15.2152C78.0283 15.633 77.3888 15.842 76.5887 15.842C75.7885 15.842 75.149 15.633 74.67 15.2152C74.191 14.7973 73.9515 14.2509 73.9515 13.5759H75.4375C75.4375 13.9295 75.5382 14.2054 75.7395 14.4036C75.9464 14.5964 76.2294 14.6929 76.5887 14.6929C76.9479 14.6929 77.2282 14.5964 77.4296 14.4036C77.631 14.2054 77.7317 13.9295 77.7317 13.5759H79.2258Z" fill="#0D47A1"/>
<path d="M99.4648 31.1339H97.5053V28.2571H89.6756V31.1339H87.6835L87.6182 26.6339H88.5734C89.047 26.1839 89.4252 25.5304 89.7083 24.6732C89.9913 23.8107 90.1737 22.8357 90.2553 21.7482L90.5656 16.5571H98.0605V26.6339H99.5709L99.4648 31.1339ZM90.9085 26.6339H96.0031V18.1964H92.5332L92.3372 21.4911C92.1903 23.6929 91.714 25.4071 90.9085 26.6339Z" fill="#0D47A1"/>
<path d="M105.735 22.6723L108.119 16.5571H110.413L106.274 26.2643L105.898 26.9955C105.354 27.9491 104.472 28.4259 103.253 28.4259L102.404 28.3777L102.42 26.7705C102.551 26.792 102.782 26.8027 103.114 26.8027C103.702 26.8027 104.116 26.5563 104.355 26.0634L104.78 25.075L100.714 16.5571H102.967L105.735 22.6723Z" fill="#0D47A1"/>
<path d="M119.834 18.1964H114.356V21.033H116.789C117.66 21.033 118.419 21.1804 119.067 21.475C119.715 21.7696 120.207 22.1875 120.545 22.7286C120.882 23.2696 121.051 23.8964 121.051 24.6089C121.051 25.7018 120.673 26.5804 119.916 27.2446C119.165 27.9089 118.139 28.2464 116.838 28.2571H112.291V16.5571H119.834V18.1964ZM114.356 22.6643V26.6339H116.781C117.478 26.6339 118.019 26.4491 118.406 26.0795C118.798 25.7045 118.994 25.2089 118.994 24.5929C118.994 24.0036 118.803 23.5375 118.422 23.1946C118.041 22.8518 117.513 22.675 116.838 22.6643H114.356Z" fill="#0D47A1"/>
<path d="M132.612 28.2571H130.554V23.058H125.239V28.2571H123.173V16.5571H125.239V21.4268H130.554V16.5571H132.612V28.2571Z" fill="#0D47A1"/>
<path d="M137.518 21.033H139.951C140.822 21.033 141.581 21.1804 142.229 21.475C142.877 21.7696 143.369 22.1875 143.707 22.7286C144.044 23.2696 144.213 23.8964 144.213 24.6089C144.213 25.7018 143.835 26.5804 143.078 27.2446C142.327 27.9089 141.301 28.2464 140 28.2571H135.452V16.5571H137.518V21.033ZM147.446 28.2571H145.389V16.5571H147.446V28.2571ZM137.518 22.6643V26.6339H139.943C140.64 26.6339 141.181 26.4491 141.568 26.0795C141.96 25.7045 142.155 25.2089 142.155 24.5929C142.155 24.0036 141.965 23.5375 141.584 23.1946C141.203 22.8518 140.675 22.675 140 22.6643H137.518Z" fill="#0D47A1"/>
</svg>
